# xmcd CD database file
#
# Track frame offsets:
#	150
#	14645
#	28951
#	41859
#	53722
#	66860
#	78879
#	91734
#	105675
#	118386
#	132148
#	146590
#	161369
#	175275
#	189830
#	204454
#	218520
#	234128
#	247953
#
# Disc length: 3480 seconds
#
# Revision: 6
# Processed by: cddbd v1.5.2PL0 Copyright (c) Steve Scherf et al.
# Submitted via: CDex 1.51
#
DISCID=fe0d9613
DTITLE=Billie Holiday - Billy Holiday  [CD 02-10]
DYEAR=1900
DGENRE=Jazz
TTITLE0=I Cried For You
TTITLE1=Guess Who
TTITLE2=Did I Remember ¿
TTITLE3=No Regrets
TTITLE4=Summertime
TTITLE5=Billie's Blues
TTITLE6=A Fine Romance
TTITLE7=I Can't Pretend
TTITLE8=One, Two, Button Your Shoe
TTITLE9=Let's Call A Heart A Heart
TTITLE10=Easy To Love
TTITLE11=With Thee I Swing
TTITLE12=The Way You Look Tonight
TTITLE13=Who Loves You
TTITLE14=Pennies From Heaven
TTITLE15=That's Life I Guess
TTITLE16=I Can't Give You Anything But Love
TTITLE17=One Never Knows, Does One ¿
TTITLE18=I've Got My Love To Keep Me Warm
EXTD=Volume 2 of a 10-CD set.
EXTT0=
EXTT1=
EXTT2=
EXTT3=
EXTT4=
EXTT5=
EXTT6=
EXTT7=
EXTT8=
EXTT9=
EXTT10=
EXTT11=
EXTT12=
EXTT13=
EXTT14=
EXTT15=
EXTT16=
EXTT17=
EXTT18=
PLAYORDER=
